<?xml version="1.0" encoding="UTF-8"?>
<svg id="Layer_2" data-name="Layer 2" xmlns="http://www.w3.org/2000/svg" viewBox="0 0 150.99 46.46">
  <defs>
    <style>
      .cls-1 {
        fill: none;
        stroke: #e88324;
        stroke-miterlimit: 10;
      }

      .cls-2 {
        fill: #fff;
      }

      .cls-3 {
        fill: #e88324;
      }
    </style>
  </defs>
  <g id="Layer_2-2" data-name="Layer 2">
    <g>
      <path class="cls-3" d="M.5,10.46h149.99v29.39c0,3.34-2.71,6.05-6.05,6.05H6.55c-3.34,0-6.05-2.71-6.05-6.05V10.46h0Z"/>
      <g>
        <path class="cls-3" d="M61.16,5.91c0-1.15.64-1.82,1.63-1.82.75,0,1.43.37,1.52,1.21h-.84c-.1-.41-.45-.49-.69-.49-.61,0-.78.5-.78,1.06s.19,1.09.8,1.09c.31,0,.71-.12.72-.61h-.62v-.68h1.46v.4c0,1.07-.59,1.62-1.55,1.62-1.09,0-1.65-.69-1.65-1.78Z"/>
        <path class="cls-3" d="M64.83,4.13h1.45c.96,0,1.37.51,1.37,1.19,0,.49-.2.9-.68,1.09l.71,1.23h-.83l-.63-1.12h-.56v1.12h-.84v-3.5ZM66.25,5.79c.38,0,.53-.19.53-.47s-.16-.46-.53-.46h-.59v.93h.59Z"/>
        <path class="cls-3" d="M69.11,4.13h1.09l1.25,3.5h-.89l-.2-.6h-1.42l-.2.6h-.88l1.25-3.5ZM70.16,6.42l-.48-1.44h-.05l-.48,1.44h1.01Z"/>
        <path class="cls-3" d="M71.78,4.13h1.45c.96,0,1.37.51,1.37,1.19s-.41,1.2-1.37,1.2h-.62v1.12h-.84v-3.5ZM73.21,5.79c.38,0,.53-.19.53-.47s-.16-.46-.53-.46h-.59v.93h.59Z"/>
        <path class="cls-3" d="M77.07,6.23h-1.25v1.41h-.84v-3.5h.84v1.4h1.25v-1.4h.84v3.5h-.84v-1.41Z"/>
        <path class="cls-3" d="M78.44,4.13h.84v3.5h-.84v-3.5Z"/>
        <path class="cls-3" d="M79.72,5.89c0-1.12.63-1.8,1.67-1.8.78,0,1.42.4,1.48,1.31h-.82c-.1-.43-.37-.59-.69-.59-.59,0-.79.5-.79,1.07s.19,1.08.79,1.08c.32,0,.59-.16.69-.59h.82c-.06.92-.7,1.32-1.49,1.32-1.03,0-1.66-.68-1.66-1.8Z"/>
        <path class="cls-3" d="M84.43,4.13h1.38c1.09,0,1.66.63,1.66,1.75s-.57,1.75-1.66,1.75h-1.38v-3.5ZM85.72,6.91c.67,0,.88-.29.88-1.02s-.21-1.02-.88-1.02h-.46v2.04h.46Z"/>
        <path class="cls-3" d="M87.9,4.13h2.44v.73h-1.6v.68h1.45v.65h-1.45v.71h1.65v.73h-2.49v-3.5Z"/>
        <path class="cls-3" d="M90.69,6.46h.87c.02.3.18.54.63.54.35,0,.57-.14.57-.4,0-.21-.13-.3-.44-.36l-.5-.1c-.54-.1-1.03-.34-1.03-1,0-.7.58-1.05,1.39-1.05s1.38.36,1.38,1.12h-.87c.02-.31-.24-.42-.53-.42-.36,0-.49.18-.49.35,0,.14.08.28.35.33l.45.09c.88.18,1.18.51,1.18,1.04,0,.78-.67,1.1-1.46,1.1-.91,0-1.49-.42-1.49-1.23Z"/>
        <path class="cls-3" d="M94.08,4.13h.84v3.5h-.84v-3.5Z"/>
        <path class="cls-3" d="M95.36,5.91c0-1.15.64-1.82,1.63-1.82.75,0,1.43.37,1.52,1.21h-.84c-.09-.41-.45-.49-.69-.49-.61,0-.78.5-.78,1.06s.19,1.09.8,1.09c.3,0,.71-.12.71-.61h-.62v-.68h1.46v.4c0,1.07-.59,1.62-1.55,1.62-1.09,0-1.65-.69-1.65-1.78Z"/>
        <path class="cls-3" d="M99.02,4.13h.87l1.29,2.15h.02v-2.15h.84v3.5h-.9l-1.26-2.09h-.02v2.09h-.84v-3.5Z"/>
        <path class="cls-3" d="M102.57,4.13h2.44v.73h-1.6v.68h1.45v.65h-1.45v.71h1.65v.73h-2.49v-3.5Z"/>
        <path class="cls-3" d="M105.44,4.13h1.45c.96,0,1.37.51,1.37,1.19,0,.49-.2.9-.68,1.09l.71,1.23h-.83l-.63-1.12h-.56v1.12h-.84v-3.5ZM106.86,5.79c.38,0,.53-.19.53-.47s-.16-.46-.53-.46h-.59v.93h.59Z"/>
        <path class="cls-3" d="M110.76,6.58h-.92v-.71h.92v-.92h.76v.92h.93v.71h-.93v.93h-.76v-.93Z"/>
        <path class="cls-3" d="M114.1,4.13h.84v3.5h-.84v-3.5Z"/>
        <path class="cls-3" d="M115.47,4.13h.84v2.77h1.57v.73h-2.4v-3.5Z"/>
        <path class="cls-3" d="M118.25,4.13h.84v2.77h1.57v.73h-2.4v-3.5Z"/>
        <path class="cls-3" d="M120.99,6.31v-2.17h.85v2.11c0,.48.23.72.62.72s.62-.24.62-.72v-2.11h.85v2.17c0,.95-.61,1.38-1.47,1.38s-1.47-.44-1.47-1.38Z"/>
        <path class="cls-3" d="M124.36,6.46h.87c.02.3.18.54.63.54.35,0,.57-.14.57-.4,0-.21-.13-.3-.44-.36l-.5-.1c-.54-.1-1.03-.34-1.03-1,0-.7.58-1.05,1.39-1.05s1.38.36,1.38,1.12h-.87c.02-.31-.24-.42-.53-.42-.36,0-.49.18-.49.35,0,.14.08.28.35.33l.45.09c.88.18,1.18.51,1.18,1.04,0,.78-.67,1.1-1.46,1.1-.91,0-1.49-.42-1.49-1.23Z"/>
        <path class="cls-3" d="M128.44,4.88h-.99v-.75h2.83v.75h-1v2.76h-.84v-2.76Z"/>
        <path class="cls-3" d="M130.63,4.13h1.45c.96,0,1.37.51,1.37,1.19,0,.49-.2.9-.68,1.09l.71,1.23h-.83l-.63-1.12h-.56v1.12h-.84v-3.5ZM132.05,5.79c.38,0,.53-.19.53-.47s-.16-.46-.53-.46h-.59v.93h.59Z"/>
        <path class="cls-3" d="M134.92,4.13h1.09l1.25,3.5h-.89l-.2-.6h-1.42l-.2.6h-.88l1.25-3.5ZM135.97,6.42l-.48-1.44h-.05l-.48,1.44h1.01Z"/>
        <path class="cls-3" d="M137.93,4.88h-.99v-.75h2.83v.75h-1v2.76h-.84v-2.76Z"/>
        <path class="cls-3" d="M139.9,5.89c0-1.06.66-1.8,1.69-1.8s1.7.74,1.7,1.8-.66,1.8-1.7,1.8-1.69-.75-1.69-1.8ZM141.59,6.96c.54,0,.83-.45.83-1.08s-.28-1.07-.83-1.07-.83.44-.83,1.07.28,1.08.83,1.08Z"/>
        <path class="cls-3" d="M143.72,4.13h1.45c.96,0,1.37.51,1.37,1.19,0,.49-.2.9-.68,1.09l.71,1.23h-.83l-.63-1.12h-.56v1.12h-.84v-3.5ZM145.14,5.79c.38,0,.53-.19.53-.47s-.16-.46-.53-.46h-.59v.93h.59Z"/>
      </g>
      <rect class="cls-1" x=".5" y=".5" width="149.99" height="45.46" rx="5.5" ry="5.5"/>
      <line class="cls-1" x1="20.36" y1="5.47" x2="25.01" y2="5.47"/>
      <rect class="cls-1" x="12.89" y="3.72" width="3.52" height="3.52"/>
      <g>
        <line class="cls-1" x1="5.03" y1="3.52" x2="8.94" y2="7.43"/>
        <line class="cls-1" x1="8.94" y1="3.52" x2="5.03" y2="7.43"/>
      </g>
      <g>
        <g>
          <g>
            <path class="cls-3" d="M142.18,32.31c-.26-2.17,0-4.31.26-6.46.14-1.17.31-2.34.47-3.51-.06-.09-.11-.17-.17-.25-.06-.08-.13-.15-.25-.27-.84.02-1.6-.28-2.42-.31-.83-.02-1.65-.08-2.53.09-.21,1.75-.42,3.49-.64,5.22-.22-.01-.31-.1-.36-.22-.61-1.37-1.69-2.46-2.02-4.02-.27-1.28-1.01-1.39-2.57-1.26-1.01.09-2.01.35-3.02.53-.16.18-.31.37-.51.52-.33.24-.45.78-.26.98.74.76.41,1.62.34,2.44-.22,2.44.12,4.86.17,7.29.02.85-.2,1.72.06,2.55,1.02.47,4.56.85,5.39.56.35-.46.23-1.01.14-1.54-.09-.53-.13-1.05-.06-1.63.39.39.5.87.65,1.3,1.97,1.85,4.31,2.24,6.8,1.94,1.46-.91,1.32-2.1.68-3.39-.08-.17-.12-.38-.14-.57Z"/>
            <path class="cls-2" d="M132.77,21.28c1,0,1.52.27,1.74,1.3.33,1.57,1.41,2.66,2.02,4.02.05.12.14.2.36.22.21-1.73.42-3.47.64-5.22.49-.09.96-.12,1.42-.12.37,0,.74.02,1.11.03.79.02,1.53.31,2.33.31.03,0,.06,0,.09,0,.12.13.19.2.25.27.06.08.11.16.17.25-.16,1.17-.32,2.34-.47,3.51-.26,2.15-.52,4.29-.26,6.46.02.19.06.4.14.57.63,1.29.78,2.48-.68,3.39-.49.06-.98.09-1.45.09-1.95,0-3.77-.55-5.35-2.03-.15-.42-.26-.9-.65-1.3-.07.57-.02,1.1.06,1.63.09.53.21,1.07-.14,1.54-.2.07-.56.1-1,.1-1.39,0-3.62-.3-4.39-.66-.26-.83-.05-1.69-.06-2.55-.05-2.43-.39-4.85-.17-7.29.07-.82.4-1.68-.34-2.44-.19-.2-.07-.74.26-.98.2-.15.35-.33.51-.52,1.01-.18,2-.45,3.02-.53.31-.03.58-.04.83-.04M132.77,18.28v3s0-3,0-3c-.31,0-.65.02-1.08.05-.88.07-1.71.25-2.44.4-.29.06-.57.12-.86.17-.67.12-1.28.47-1.73.99l-.07.08s-.04.04-.06.07c-.83.65-1.37,1.66-1.46,2.73-.07.77.11,1.52.5,2.15-.03.21-.06.42-.08.63-.16,1.84-.06,3.59.05,5.28.05.81.1,1.58.11,2.35,0,.14-.01.35-.03.57-.05.72-.12,1.71.23,2.82.25.8.83,1.46,1.59,1.81,1.53.71,4.47.94,5.66.94.84,0,1.46-.08,1.99-.27.31-.11.6-.27.85-.46,1.29.53,2.71.79,4.24.79.58,0,1.19-.04,1.82-.12.43-.05.85-.2,1.22-.43.94-.59,3.81-2.79,1.92-6.98-.2-1.81.04-3.75.27-5.62.1-.79.21-1.58.31-2.37l.15-1.1c.1-.75-.08-1.5-.51-2.12l-.03-.04c-.09-.13-.17-.25-.27-.37-.08-.1-.17-.21-.3-.34l-.08-.09c-.57-.62-1.37-.97-2.21-.97-.03,0-.05,0-.08,0h0c-.14,0-.4-.05-.66-.1-.44-.08-.98-.19-1.6-.21h-.29c-.3-.02-.6-.03-.9-.03-.73,0-1.36.05-1.97.17-.45.08-.86.27-1.22.52-.69-.52-1.66-.9-2.99-.9h0Z"/>
          </g>
          <g>
            <path class="cls-3" d="M108.29,21.81c-1.57-.71-3.22-1.16-4.98-1.01-1.04.09-2.09,0-3.14.1-.69.07-1.34-.02-1.93.49,0,.39-.02.77.19,1.16-.35.42-.31.91-.27,1.4.04.44.14.88.16,1.32.11,2.36-.25,4.69-.37,7.04-.05.98-.41,1.97-.03,2.99,1.76.14,3.5.43,5.26.16.13-.97-.2-1.85.1-2.74.23.47.43.91.66,1.33.24.44.27.93.39,1.43.36.38.78.55,1.23.42,1.34-.38,2.68-.81,4.01-1.21.29-.09.5-.24.49-.62-.61-1.18-1.2-2.41-1.71-3.65.4-.48.87-.88,1.12-1.39.32-.67.99-1.14,1.09-1.93.16-1.28.03-2.47-.66-3.62-.42-.7-.88-1.34-1.6-1.67ZM105.07,26.49c-.5.45-1.12.42-1.75.5-.02-.51-.09-.99.08-1.52.53.24,1.15.05,1.61.48.07.16.14.35.06.54Z"/>
            <path class="cls-2" d="M103.98,20.77c1.51,0,2.94.42,4.31,1.04.72.32,1.18.97,1.6,1.67.7,1.15.83,2.34.66,3.62-.1.79-.76,1.26-1.09,1.93-.24.51-.72.91-1.12,1.39.51,1.24,1.1,2.47,1.71,3.65.02.38-.2.54-.49.62-1.34.41-2.67.83-4.01,1.21-.1.03-.2.04-.3.04-.34,0-.66-.17-.94-.47-.12-.5-.15-.99-.39-1.43-.23-.42-.43-.86-.66-1.33-.3.89.03,1.78-.1,2.74-.52.08-1.04.11-1.56.11-1.23,0-2.46-.18-3.7-.27-.38-1.02-.02-2.01.03-2.99.12-2.35.48-4.68.37-7.04-.02-.44-.12-.88-.16-1.32-.04-.49-.08-.98.27-1.4-.21-.39-.19-.77-.19-1.16.59-.51,1.24-.43,1.93-.49,1.05-.1,2.1-.01,3.14-.1.22-.02.45-.03.67-.03M103.32,26.98c.63-.08,1.25-.04,1.75-.5.08-.2.02-.38-.06-.54-.47-.43-1.08-.24-1.61-.48-.17.52-.09,1.01-.08,1.52M103.98,17.77c-.31,0-.61.01-.92.04-.38.03-.81.03-1.27.03-.57,0-1.23,0-1.91.07-.09,0-.19.01-.28.02-.73.04-2.09.11-3.35,1.21-.65.57-1.03,1.4-1.02,2.27v.09c0,.2,0,.48.04.8-.2.8-.14,1.5-.11,1.9.02.26.06.52.1.77.02.17.05.34.06.44.07,1.37-1.06,2.51-1.19,4.01-.07.8.04,1.24,0,2.08,0,.15.27.93.24,1.15-.12.86.2,2.25.73,3.69.41,1.1,1.42,1.86,2.58,1.95.37.03.74.06,1.11.1.9.09,1.83.18,2.82.18.62,0,1.19-.04,1.74-.11.59.31,1.24.48,1.91.48.37,0,.75-.05,1.11-.16,1.01-.29,2.01-.6,2.98-.9l1.09-.33c1.65-.5,2.68-1.92,2.61-3.62-.02-.44-.13-.87-.34-1.26-.31-.6-.6-1.19-.88-1.77.11-.17.22-.35.31-.55.05-.08.11-.15.17-.22.39-.51,1.04-1.37,1.21-2.66.27-2.1-.08-3.91-1.07-5.55-.63-1.04-1.47-2.19-2.94-2.85-1.95-.88-3.77-1.31-5.55-1.31h0ZM106.29,26.21h0,0Z"/>
          </g>
          <g>
            <path class="cls-3" d="M56.02,26.98c1.28-.96,2.31-2.06,3.64-2.87-.02-.83-2.56-4.14-3.26-4.19-1,1.11-2.23,1.97-3.45,2.99-.17-.67-.31-1.21-.45-1.75-.27-.07-.49-.13-.72-.19-1.43.27-2.87.52-4.23.9-.15.4.11.64.14.94.19,2.54.4,5.07.59,7.61.15,2.01.28,4.01.44,6.02.01.19.05.42.33.6,1.63-.34,3.39-.42,5.01-1.06-.41-1.48-.49-2.89-.52-4.51,1.52,1.29,2.81,2.59,4.37,3.77,1.15-1.19,2.5-2.27,3.5-3.74-2.17-1.81-3.84-2.8-5.37-4.5Z"/>
            <path class="cls-2" d="M56.4,19.93c.69.05,3.24,3.36,3.26,4.19-1.32.81-2.36,1.91-3.64,2.87,1.53,1.71,3.2,2.69,5.37,4.5-1,1.47-2.36,2.55-3.5,3.74-1.56-1.18-2.85-2.48-4.37-3.77.03,1.61.11,3.03.52,4.51-1.62.65-3.37.72-5.01,1.06-.28-.18-.31-.41-.33-.6-.16-2.01-.29-4.01-.44-6.02-.19-2.54-.39-5.07-.59-7.61-.02-.29-.28-.54-.14-.94,1.36-.38,2.8-.63,4.23-.9.23.06.45.12.72.19.14.54.28,1.08.45,1.75,1.22-1.02,2.45-1.88,3.45-2.99M56.4,16.93c-.85,0-1.66.36-2.23.99-.15.17-.31.33-.49.49-.13-.06-.27-.11-.41-.14l-.65-.18-.07-.02c-.26-.07-.52-.1-.78-.1-.19,0-.37.02-.55.05l-.57.11c-1.28.24-2.6.48-3.91.85-.93.26-1.68.95-2.01,1.85-.41,1.11-.18,2.05-.02,2.53l.22,2.8c.12,1.49.23,2.99.34,4.48.07.87.13,1.75.19,2.62.08,1.14.16,2.27.25,3.41.12,1.56.99,2.43,1.69,2.89.49.31,1.05.48,1.63.48.21,0,.41-.02.61-.06.45-.09.94-.17,1.46-.25,1.23-.19,2.63-.4,4.04-.97.5-.2.92-.52,1.24-.92.47.27.98.4,1.5.4.79,0,1.58-.31,2.16-.92.32-.33.65-.65.98-.97.92-.88,1.95-1.87,2.83-3.16.87-1.28.63-3-.55-3.99-.81-.68-1.56-1.25-2.22-1.75-.16-.12-.31-.24-.47-.36.2-.15.39-.28.59-.4.91-.56,1.46-1.56,1.44-2.63-.01-.48-.04-1.61-2-4.15-1.82-2.35-2.94-2.88-4.05-2.96-.07,0-.13,0-.2,0h0Z"/>
          </g>
          <g>
            <path class="cls-3" d="M94.54,21.02c-3.6-.03-7.2-.02-10.79-.03-.63,0-1.28.11-1.85-.25-.29.09-.57.09-.76.34-.19,1.51.16,4.65.67,5.59,1.34-.27,2.66-.2,4.03-.16-.13,2.9-.21,5.72-.12,8.58,1.97.07,3.85.4,5.77-.02-.32-2.93-.27-5.69-.1-8.48,1.62.11,3.09-.05,4.67.21.17-1.8.34-3.51.51-5.26-.1-.16-.22-.36-.31-.51-.62-.34-1.17,0-1.73,0Z"/>
            <path class="cls-2" d="M81.9,20.74c.35.22.73.27,1.11.27.24,0,.48-.02.72-.02,0,0,0,0,.01,0,3.6,0,7.2,0,10.79.03,0,0,0,0,.01,0,.37,0,.74-.15,1.12-.15.19,0,.39.04.59.15.09.15.22.35.31.51-.17,1.75-.33,3.46-.51,5.26-1.58-.25-3.05-.1-4.67-.21-.17,2.8-.23,5.55.1,8.48-.72.16-1.44.21-2.16.21-1.19,0-2.39-.15-3.62-.19-.09-2.86,0-5.67.12-8.58-.58-.02-1.16-.04-1.73-.04-.77,0-1.53.04-2.3.2-.51-.94-.86-4.08-.67-5.59.18-.25.47-.25.76-.34M81.9,17.74c-.3,0-.6.04-.89.13h-.04c-.4.11-1.47.37-2.25,1.44-.3.41-.49.89-.55,1.39-.23,1.77.06,5.63,1,7.39.53.99,1.55,1.58,2.64,1.58.2,0,.4-.02.6-.06.1-.02.2-.04.31-.05-.05,1.79-.07,3.69,0,5.63.05,1.58,1.31,2.85,2.89,2.91.48.02.95.05,1.42.09.74.05,1.5.11,2.3.11,1.02,0,1.94-.09,2.8-.28,1.5-.33,2.78-1.78,2.61-3.3-.2-1.8-.51-3.47-.48-5.05.46.01.9.04,1.33.11.16.03.32.04.47.04.66,0,1.31-.22,1.84-.63.65-.51,1.07-1.26,1.15-2.08l.36-3.71.15-1.55c.06-.65-.09-1.3-.43-1.85l-.22-.36-.09-.15c-.27-.44-.65-.81-1.11-1.06-.63-.35-1.32-.52-2.04-.52-.5,0-.9.08-1.17.14-.02,0-.04,0-.07.01-2.51-.02-5.03-.02-7.55-.03h-3.14s0,0,0,0c-.17,0-.33,0-.48,0-.05,0-.09,0-.14,0-.39-.18-.81-.27-1.23-.27h0Z"/>
          </g>
          <g>
            <path class="cls-3" d="M44.35,29.58c-.58.01-1.23.1-1.85.16-.84.07-.98-.3-1.23.32-.25.63-1.6,1.02-2.35.98s-1.22-.32-1.23-1.39c-.01-1.08.91-2.52,1.87-2.55.96-.03.87.85,1.3,1.27.58-.29,1.25-.41,1.72-.63.47-.23,2.16-1.44,3.13-2.45.03-.22.12-.53-.05-.83-.18-.12-.39-.21-.54-.37-.89-.97-1.83-1.86-3.06-2.29-1.1-.38-2.22-.87-3.41-.65-2.05.39-3.48,1.82-4.54,3.69-.88,1.57-1.18,3.34-1.28,5.12-.1,1.79.47,3.38,1.49,4.68.89,1.13,3,1.78,3.56,1.87.55.09.52.09.77.13.68.11,1.35.15,2.05-.06,2.28-.7,3.92-2.17,4.9-4.56.2-.48.35-1.04.36-1.59s.2-.59.13-.94c-.59-.14-1.14.06-1.72.07Z"/>
            <path class="cls-2" d="M39.25,21.1c.96,0,1.88.39,2.79.7,1.24.43,2.18,1.32,3.06,2.29.15.16.36.25.54.37.17.3.08.61.05.83-.97,1.02-2.66,2.23-3.13,2.45-.47.23-1.13.34-1.72.63-.43-.42-.35-1.27-1.26-1.27-.01,0-.03,0-.04,0-.96.03-1.88,1.47-1.87,2.55.01,1.08.47,1.36,1.23,1.39.03,0,.07,0,.11,0,.77,0,2.01-.38,2.25-.98.12-.3.21-.37.37-.37.14,0,.34.06.65.06.07,0,.14,0,.22,0,.62-.07,1.27-.15,1.85-.16.43,0,.84-.12,1.26-.12.15,0,.3.01.46.05.08.35-.12.39-.13.94s-.16,1.11-.36,1.59c-.98,2.39-2.61,3.86-4.9,4.56-.36.11-.71.15-1.06.15-.33,0-.66-.04-.98-.09-.26-.04-.22-.04-.77-.13-.55-.09-2.67-.75-3.56-1.87-1.02-1.29-1.59-2.89-1.49-4.68.1-1.78.39-3.55,1.28-5.12,1.06-1.88,2.49-3.3,4.54-3.69.21-.04.42-.06.62-.06M39.25,18.1h0c-.4,0-.8.04-1.19.11-2.73.52-4.95,2.26-6.59,5.17-1.3,2.31-1.57,4.78-1.66,6.43-.13,2.44.6,4.76,2.13,6.69,1.54,1.96,4.51,2.83,5.43,2.98l.53.09.24.04c.54.09,1.01.13,1.47.13.68,0,1.32-.09,1.94-.28,3.2-.98,5.48-3.1,6.79-6.29.35-.84.54-1.68.58-2.49.1-.36.24-1,.06-1.81-.14-.66-.5-1.24-.99-1.66.36-.43.59-.95.67-1.5.07-.44.26-1.55-.42-2.74-.23-.4-.55-.74-.93-1-.07-.05-.14-.09-.21-.13-1.03-1.1-2.32-2.27-4.09-2.88l-.38-.14c-.91-.33-2.05-.73-3.39-.73h0Z"/>
          </g>
          <g>
            <path class="cls-3" d="M15.61,27.17c-.5-1.93-1.27-3.57-1.91-5.27-.22-.59-.5-.87-1.1-.78-.56.09-1.13.07-1.68.17-.9.16-1.81.24-2.84.68,1.81,4.51,3.3,9.09,4.86,13.86,1.67-.12,3.53.25,5.37-.26,1.29-4.82,3.87-8.8,5.79-13.29-1.76-.91-3.44-1.73-5.29-2.36-.99,2.46-1.85,4.9-3.2,7.25Z"/>
            <path class="cls-2" d="M18.81,19.93c1.85.63,3.53,1.46,5.29,2.36-1.92,4.49-4.5,8.47-5.79,13.29-.81.23-1.63.28-2.43.28-.72,0-1.44-.04-2.12-.04-.28,0-.55,0-.82.03-1.56-4.77-3.04-9.35-4.86-13.86,1.02-.45,1.94-.53,2.84-.68.56-.1,1.13-.08,1.68-.17.08-.01.15-.02.22-.02.45,0,.69.28.88.79.64,1.7,1.41,3.34,1.91,5.27,1.35-2.35,2.21-4.78,3.2-7.25M18.81,16.92c-1.19,0-2.31.72-2.78,1.88-.09.23-.18.46-.27.69-.99-1.23-2.31-1.39-2.93-1.39-.23,0-.47.02-.7.06-.13.02-.32.03-.53.05-.33.02-.74.05-1.18.13-.15.03-.3.05-.45.07-.84.13-1.89.3-3.08.82-1.49.65-2.19,2.36-1.58,3.87,1.72,4.28,3.14,8.63,4.65,13.24l.14.43c.41,1.24,1.56,2.07,2.85,2.07.07,0,.15,0,.22,0,.2-.01.4-.02.6-.02.31,0,.62.01.94.02.39.01.78.02,1.18.02.79,0,1.98-.04,3.23-.39,1.02-.28,1.82-1.09,2.1-2.11.76-2.85,2.05-5.43,3.41-8.16.76-1.52,1.54-3.08,2.24-4.73.62-1.45.01-3.12-1.38-3.85-1.72-.89-3.58-1.81-5.7-2.53-.32-.11-.65-.16-.97-.16h0Z"/>
          </g>
          <g>
            <path class="cls-3" d="M76.2,24.23c-.65-1.19-1.65-2.07-2.39-3.18-.26-.4-.61-.63-1.16-.33-1.06,1.82-2.16,3.69-3.29,5.62-1.49-1.38-2.88-2.73-4.24-4.25-1.51.89-2.64,2.24-3.91,3.27-.09.43.04.68.29.85,1.18.8,2.15,1.88,3.19,2.87.62.59,1.3,1.13,1.84,1.89-.64.85-1.16,1.76-1.87,2.42-.63.59-.8,1.15-.57,2.01,1.17.94,2.37,1.91,3.56,2.86.29-.06.53-.11.76-.15,1.85-2.38,3.52-6.05,4.24-7.1s.68-.91.87-1.24c.87-1.46,1.61-3.01,2.63-4.37.29-.39.37-.76.03-1.15l.02-.02Z"/>
            <path class="cls-2" d="M73.12,20.58c.3,0,.52.2.69.47.74,1.11,1.73,1.99,2.39,3.18l-.02.02c.34.4.26.77-.03,1.15-1.02,1.36-1.76,2.91-2.63,4.37-.2.33-.15.19-.87,1.24-.72,1.05-2.39,4.72-4.24,7.1-.23.05-.47.1-.76.15-1.18-.95-2.38-1.91-3.56-2.86-.23-.86-.06-1.42.57-2.01.71-.66,1.23-1.57,1.87-2.42-.54-.77-1.22-1.3-1.84-1.89-1.03-.99-2.01-2.07-3.19-2.87-.25-.17-.37-.42-.29-.85,1.27-1.03,2.4-2.39,3.91-3.27,1.36,1.52,2.75,2.87,4.24,4.25,1.13-1.93,2.23-3.8,3.29-5.62.18-.1.33-.14.47-.14M73.12,17.58c-.66,0-1.31.18-1.93.52-.47.26-.86.64-1.13,1.1l-1.36,2.32c-.48-.49-.92-.96-1.35-1.44-.59-.65-1.4-1-2.23-1-.52,0-1.04.13-1.52.41-1.27.75-2.26,1.68-3.13,2.5-.41.38-.79.74-1.15,1.04-.54.44-.91,1.05-1.05,1.74-.32,1.59.26,3.05,1.55,3.92.67.45,1.33,1.11,2.03,1.8.24.24.49.48.74.72-1.42,1.33-1.9,3.05-1.4,4.95.16.62.52,1.17,1.02,1.57l3.56,2.86c.54.43,1.2.66,1.88.66.2,0,.4-.02.6-.06l.29-.06.47-.1c.7-.14,1.33-.53,1.77-1.1,1.37-1.76,2.58-4.02,3.47-5.67.34-.63.72-1.35.88-1.57.34-.5.49-.69.57-.81.13-.17.24-.32.4-.6.29-.49.57-.99.85-1.48.53-.95,1.03-1.86,1.61-2.62,1.01-1.35,1.12-2.98.33-4.32-.02-.03-.03-.07-.05-.1-.51-.93-1.12-1.66-1.66-2.3-.32-.38-.62-.75-.85-1.08-.76-1.15-1.93-1.81-3.2-1.81h0Z"/>
          </g>
          <g>
            <path class="cls-3" d="M25.93,21.46c-.16,5.19-.81,10.14-.98,15.16,1.93-.21,3.73-.24,5.69-.61,0-4.77.6-9.44.86-14.33-1.81-.66-3.71-.44-5.57-.22Z"/>
            <path class="cls-2" d="M28.74,21.23c.93,0,1.85.11,2.75.44-.26,4.89-.86,9.56-.86,14.33-1.96.37-3.76.4-5.69.61.17-5.02.82-9.97.98-15.16.93-.11,1.88-.22,2.81-.22M28.74,18.24c-1.11,0-2.15.12-3.16.24-1.47.17-2.6,1.4-2.65,2.88-.08,2.58-.29,5.16-.49,7.66-.2,2.44-.4,4.97-.49,7.49-.03.87.32,1.71.96,2.3.56.52,1.29.8,2.04.8.11,0,.22,0,.33-.02.63-.07,1.25-.12,1.86-.16,1.28-.1,2.61-.21,4.06-.48,1.42-.27,2.45-1.51,2.44-2.95,0-2.88.22-5.72.47-8.72.14-1.77.29-3.59.39-5.45.07-1.32-.73-2.52-1.96-2.98-1.14-.42-2.38-.62-3.78-.62h0Z"/>
          </g>
          <g>
            <path class="cls-3" d="M126.86,32.73c-.9-1.54-1.74-3.12-2.35-4.81-.57-1.6-1.39-3.1-1.85-4.75,0,0,.01,0,.01,0-.27-.61-.46-1.27-1.22-1.5-1.41-.43-2.86-.67-4.33-.7-.51,0-.85.35-.88.9-.01.27-.04.56.04.81.25.76-.02,1.38-.37,2.03-.88,1.62-1.94,3.14-2.6,4.87-.53,1.38-1.09,2.74-1.56,4.14-.28.83-.02,1.14.82,1.36,1.02.26,2.09.24,3.1.49.65.16,1.23.32,1.83-.12.07-.47.18-.94.37-1.35,1,.15,1.94.3,2.93.27.18.15.37.3.57.46,0,0,0,.02.01.02.42.3.68.86,1.29.83,1.5-.08,2.95-.39,4.39-1.05-.06-.65.14-1.26-.22-1.88ZM118.57,29.45c-.23-.32.52-1.17.85-1.6s.97,1.24.98,1.53c.01.28-1.61.4-1.84.08Z"/>
            <path class="cls-2" d="M117.11,20.98s.01,0,.02,0c1.47.03,2.92.27,4.33.7.76.23.95.89,1.22,1.5h0s0,0-.01,0c.46,1.64,1.27,3.15,1.85,4.75.6,1.68,1.45,3.26,2.35,4.81.36.62.17,1.23.22,1.88-1.44.66-2.89.97-4.39,1.05-.02,0-.03,0-.05,0-.57,0-.84-.53-1.24-.83,0,0,0-.01-.01-.02-.19-.16-.39-.32-.57-.46-.1,0-.2,0-.3,0-.88,0-1.74-.14-2.63-.27-.19.42-.31.89-.37,1.35-.29.22-.57.29-.87.29-.31,0-.63-.08-.96-.17-1.01-.25-2.08-.22-3.1-.49-.84-.22-1.1-.53-.82-1.36.47-1.4,1.03-2.76,1.56-4.14.66-1.73,1.72-3.25,2.6-4.87.35-.65.62-1.27.37-2.03-.08-.25-.05-.54-.04-.81.03-.54.36-.9.86-.9M119.39,29.64c.5,0,1.03-.11,1.02-.27-.01-.25-.51-1.6-.86-1.6-.04,0-.09.02-.12.07-.33.44-1.09,1.29-.85,1.6.1.14.45.19.81.19M122.68,23.18h0M117.11,17.98h0c-2.09,0-3.74,1.61-3.85,3.74v.08c-.02.3-.05.81.07,1.4-.01.02-.03.05-.04.08-.26.47-.53.93-.8,1.39-.7,1.19-1.42,2.41-1.97,3.84-.15.39-.3.77-.45,1.16-.39,1-.79,2.03-1.15,3.1-.4,1.2-.34,2.3.18,3.26.79,1.46,2.25,1.84,2.74,1.96.73.19,1.42.27,2.02.33.42.05.82.09,1.12.16l.07.02c.4.1.95.23,1.6.23.98,0,1.88-.3,2.66-.89.17-.13.32-.27.46-.43.46.45,1.41,1.24,2.87,1.24.07,0,.14,0,.21,0,1.98-.11,3.77-.54,5.48-1.31,1.15-.53,1.85-1.72,1.74-2.99,0-.07,0-.15,0-.23.02-.6.06-1.72-.62-2.9-.74-1.26-1.56-2.76-2.11-4.3-.26-.74-.56-1.43-.85-2.09-.33-.78-.65-1.52-.87-2.23-.04-.21-.11-.42-.2-.63l-.07-.17c-.3-.71-1-2.38-3.02-2.99-1.69-.52-3.42-.79-5.15-.83-.02,0-.06,0-.08,0h0Z"/>
          </g>
        </g>
        <g>
          <path class="cls-3" d="M142.18,32.31c-.26-2.17,0-4.31.26-6.46.14-1.17.31-2.34.47-3.51-.06-.09-.11-.17-.17-.25-.06-.08-.13-.15-.25-.27-.84.02-1.6-.28-2.42-.31-.83-.02-1.65-.08-2.53.09-.21,1.75-.42,3.49-.64,5.22-.22-.01-.31-.1-.36-.22-.61-1.37-1.69-2.46-2.02-4.02-.27-1.28-1.01-1.39-2.57-1.26-1.01.09-2.01.35-3.02.53-.16.18-.31.37-.51.52-.33.24-.45.78-.26.98.74.76.41,1.62.34,2.44-.22,2.44.12,4.86.17,7.29.02.85-.2,1.72.06,2.55,1.02.47,4.56.85,5.39.56.35-.46.23-1.01.14-1.54-.09-.53-.13-1.05-.06-1.63.39.39.5.87.65,1.3,1.97,1.85,4.31,2.24,6.8,1.94,1.46-.91,1.32-2.1.68-3.39-.08-.17-.12-.38-.14-.57Z"/>
          <path class="cls-3" d="M108.29,21.81c-1.57-.71-3.22-1.16-4.98-1.01-1.04.09-2.09,0-3.14.1-.69.07-1.34-.02-1.93.49,0,.39-.02.77.19,1.16-.35.42-.31.91-.27,1.4.04.44.14.88.16,1.32.11,2.36-.25,4.69-.37,7.04-.05.98-.41,1.97-.03,2.99,1.76.14,3.5.43,5.26.16.13-.97-.2-1.85.1-2.74.23.47.43.91.66,1.33.24.44.27.93.39,1.43.36.38.78.55,1.23.42,1.34-.38,2.68-.81,4.01-1.21.29-.09.5-.24.49-.62-.61-1.18-1.2-2.41-1.71-3.65.4-.48.87-.88,1.12-1.39.32-.67.99-1.14,1.09-1.93.16-1.28.03-2.47-.66-3.62-.42-.7-.88-1.34-1.6-1.67ZM105.07,26.49c-.5.45-1.12.42-1.75.5-.02-.51-.09-.99.08-1.52.53.24,1.15.05,1.61.48.07.16.14.35.06.54Z"/>
          <path class="cls-3" d="M56.02,26.98c1.28-.96,2.31-2.06,3.64-2.87-.02-.83-2.56-4.14-3.26-4.19-1,1.11-2.23,1.97-3.45,2.99-.17-.67-.31-1.21-.45-1.75-.27-.07-.49-.13-.72-.19-1.43.27-2.87.52-4.23.9-.15.4.11.64.14.94.19,2.54.4,5.07.59,7.61.15,2.01.28,4.01.44,6.02.01.19.05.42.33.6,1.63-.34,3.39-.42,5.01-1.06-.41-1.48-.49-2.89-.52-4.51,1.52,1.29,2.81,2.59,4.37,3.77,1.15-1.19,2.5-2.27,3.5-3.74-2.17-1.81-3.84-2.8-5.37-4.5Z"/>
          <path class="cls-3" d="M94.54,21.02c-3.6-.03-7.2-.02-10.79-.03-.63,0-1.28.11-1.85-.25-.29.09-.57.09-.76.34-.19,1.51.16,4.65.67,5.59,1.34-.27,2.66-.2,4.03-.16-.13,2.9-.21,5.72-.12,8.58,1.97.07,3.85.4,5.77-.02-.32-2.93-.27-5.69-.1-8.48,1.62.11,3.09-.05,4.67.21.17-1.8.34-3.51.51-5.26-.1-.16-.22-.36-.31-.51-.62-.34-1.17,0-1.73,0Z"/>
          <path class="cls-3" d="M44.35,29.58c-.58.01-1.23.1-1.85.16-.84.07-.98-.3-1.23.32-.25.63-1.6,1.02-2.35.98s-1.22-.32-1.23-1.39c-.01-1.08.91-2.52,1.87-2.55.96-.03.87.85,1.3,1.27.58-.29,1.25-.41,1.72-.63.47-.23,2.16-1.44,3.13-2.45.03-.22.12-.53-.05-.83-.18-.12-.39-.21-.54-.37-.89-.97-1.83-1.86-3.06-2.29-1.1-.38-2.22-.87-3.41-.65-2.05.39-3.48,1.82-4.54,3.69-.88,1.57-1.18,3.34-1.28,5.12-.1,1.79.47,3.38,1.49,4.68.89,1.13,3,1.78,3.56,1.87.55.09.52.09.77.13.68.11,1.35.15,2.05-.06,2.28-.7,3.92-2.17,4.9-4.56.2-.48.35-1.04.36-1.59s.2-.59.13-.94c-.59-.14-1.14.06-1.72.07Z"/>
          <path class="cls-3" d="M15.61,27.17c-.5-1.93-1.27-3.57-1.91-5.27-.22-.59-.5-.87-1.1-.78-.56.09-1.13.07-1.68.17-.9.16-1.81.24-2.84.68,1.81,4.51,3.3,9.09,4.86,13.86,1.67-.12,3.53.25,5.37-.26,1.29-4.82,3.87-8.8,5.79-13.29-1.76-.91-3.44-1.73-5.29-2.36-.99,2.46-1.85,4.9-3.2,7.25Z"/>
          <path class="cls-3" d="M76.2,24.23c-.65-1.19-1.65-2.07-2.39-3.18-.26-.4-.61-.63-1.16-.33-1.06,1.82-2.16,3.69-3.29,5.62-1.49-1.38-2.88-2.73-4.24-4.25-1.51.89-2.64,2.24-3.91,3.27-.09.43.04.68.29.85,1.18.8,2.15,1.88,3.19,2.87.62.59,1.3,1.13,1.84,1.89-.64.85-1.16,1.76-1.87,2.42-.63.59-.8,1.15-.57,2.01,1.17.94,2.37,1.91,3.56,2.86.29-.06.53-.11.76-.15,1.85-2.38,3.52-6.05,4.24-7.1s.68-.91.87-1.24c.87-1.46,1.61-3.01,2.63-4.37.29-.39.37-.76.03-1.15l.02-.02Z"/>
          <path class="cls-3" d="M25.93,21.46c-.16,5.19-.81,10.14-.98,15.16,1.93-.21,3.73-.24,5.69-.61,0-4.77.6-9.44.86-14.33-1.81-.66-3.71-.44-5.57-.22Z"/>
          <path class="cls-3" d="M126.86,32.73c-.9-1.54-1.74-3.12-2.35-4.81-.57-1.6-1.39-3.1-1.85-4.75,0,0,.01,0,.01,0-.27-.61-.46-1.27-1.22-1.5-1.41-.43-2.86-.67-4.33-.7-.51,0-.85.35-.88.9-.01.27-.04.56.04.81.25.76-.02,1.38-.37,2.03-.88,1.62-1.94,3.14-2.6,4.87-.53,1.38-1.09,2.74-1.56,4.14-.28.83-.02,1.14.82,1.36,1.02.26,2.09.24,3.1.49.65.16,1.23.32,1.83-.12.07-.47.18-.94.37-1.35,1,.15,1.94.3,2.93.27.18.15.37.3.57.46,0,0,0,.02.01.02.42.3.68.86,1.29.83,1.5-.08,2.95-.39,4.39-1.05-.06-.65.14-1.26-.22-1.88ZM118.57,29.45c-.23-.32.52-1.17.85-1.6s.97,1.24.98,1.53c.01.28-1.61.4-1.84.08Z"/>
        </g>
      </g>
    </g>
  </g>
</svg>